<svg width="47" height="46" viewBox="0 0 47 46" fill="none" xmlns="http://www.w3.org/2000/svg">
<path d="M8.8125 5.30769C8.8125 8.23909 6.83979 10.6154 4.40625 10.6154C1.97271 10.6154 0 8.23909 0 5.30769C0 2.3763 1.97271 0 4.40625 0C6.83979 0 8.8125 2.3763 8.8125 5.30769ZM4.40625 17.6923C1.97271 17.6923 0 20.0686 0 23C0 25.9314 1.97271 28.3077 4.40625 28.3077C6.83979 28.3077 8.8125 25.9314 8.8125 23C8.8125 20.0686 6.83979 17.6923 4.40625 17.6923ZM4.40625 35.3846C1.97271 35.3846 0 37.7609 0 40.6923C0 43.6237 1.97271 46 4.40625 46C6.83979 46 8.8125 43.6237 8.8125 40.6923C8.8125 37.7609 6.83979 35.3846 4.40625 35.3846ZM13.2188 9.28846H45.5312C46.3425 9.28846 47 8.4964 47 7.51923V3.09615C47 2.11899 46.3425 1.32692 45.5312 1.32692H13.2188C12.4075 1.32692 11.75 2.11899 11.75 3.09615V7.51923C11.75 8.4964 12.4075 9.28846 13.2188 9.28846ZM13.2188 26.9808H45.5312C46.3425 26.9808 47 26.1887 47 25.2115V20.7885C47 19.8113 46.3425 19.0192 45.5312 19.0192H13.2188C12.4075 19.0192 11.75 19.8113 11.75 20.7885V25.2115C11.75 26.1887 12.4075 26.9808 13.2188 26.9808ZM13.2188 44.6731H45.5312C46.3425 44.6731 47 43.881 47 42.9038V38.4808C47 37.5036 46.3425 36.7115 45.5312 36.7115H13.2188C12.4075 36.7115 11.75 37.5036 11.75 38.4808V42.9038C11.75 43.881 12.4075 44.6731 13.2188 44.6731Z" fill="#979797"/>
</svg>
