<svg width="43" height="43" viewBox="0 0 43 43" fill="none" xmlns="http://www.w3.org/2000/svg">
<path d="M24.8594 0H40.9844C42.0976 0 43 1.03133 43 2.30357V17.6607C43 18.933 42.0976 19.9643 40.9844 19.9643H24.8594C23.7462 19.9643 22.8438 18.933 22.8438 17.6607V2.30357C22.8438 1.03133 23.7462 0 24.8594 0ZM18.1406 0H2.01562C0.902412 0 0 1.03133 0 2.30357V17.6607C0 18.933 0.902412 19.9643 2.01562 19.9643H18.1406C19.2538 19.9643 20.1562 18.933 20.1562 17.6607V2.30357C20.1562 1.03133 19.2538 0 18.1406 0ZM0 25.3393V40.6964C0 41.9687 0.902412 43 2.01562 43H18.1406C19.2538 43 20.1562 41.9687 20.1562 40.6964V25.3393C20.1562 24.067 19.2538 23.0357 18.1406 23.0357H2.01562C0.902412 23.0357 0 24.067 0 25.3393ZM24.8594 43H40.9844C42.0976 43 43 41.9687 43 40.6964V25.3393C43 24.067 42.0976 23.0357 40.9844 23.0357H24.8594C23.7462 23.0357 22.8438 24.067 22.8438 25.3393V40.6964C22.8438 41.9687 23.7462 43 24.8594 43Z" fill="#979797"/>
</svg>
