<svg width="40" height="40" viewBox="0 0 43 29" fill="none" xmlns="http://www.w3.org/2000/svg">
    <path d="M38.514 16.9675L41.9606 5.85104C42.2094 5.04841 41.3772 4.2841 40.2543 4.2841H11.617L10.9487 1.88925C10.7822 1.29233 10.0656 0.863647 9.23438 0.863647H1.75909C0.792684 0.863647 0.00927734 1.43791 0.00927734 2.14632V3.00143C0.00927734 3.70984 0.792684 4.2841 1.75909 4.2841H6.85419L11.9759 22.6388C10.7506 23.1554 9.9249 24.1239 9.9249 25.2344C9.9249 26.8873 11.7529 28.2273 14.0078 28.2273C16.2627 28.2273 18.0907 26.8873 18.0907 25.2344C18.0907 24.3967 17.6207 23.6399 16.8641 23.0966H32.1492C31.3927 23.6399 30.9227 24.3967 30.9227 25.2344C30.9227 26.8873 32.7507 28.2273 35.0056 28.2273C37.2605 28.2273 39.0885 26.8873 39.0885 25.2344C39.0885 24.0494 38.1488 23.0254 36.7861 22.5405L37.1883 21.2431C37.4372 20.4405 36.6049 19.6761 35.482 19.6761H15.912L15.4348 17.9659H36.8077C37.6247 17.9659 38.3329 17.5515 38.514 16.9675Z" fill="black"/>
    <ellipse cx="34.00552" cy="3.81819" rx="8.99905" ry="8.79545" fill="red" />
    <path fill-rule="evenodd" clip-rule="evenodd" d="M35 -3 V11 H33 V-3
    m-6 6 H27 V4.9 H41 V3              "
          fill="black" fill-opacity="0.54"/>
</svg>
